<svg xmlns="http://www.w3.org/2000/svg" viewBox="0 0 400 500" fill="none">
  <defs>
    <linearGradient id="bg" x1="0" y1="0" x2="400" y2="500" gradientUnits="userSpaceOnUse">
      <stop stop-color="#FFF5F7"/>
      <stop offset="1" stop-color="#FDE7D2"/>
    </linearGradient>
    <radialGradient id="glow" cx="50%" cy="42%" r="55%">
      <stop offset="0%" stop-color="#FFD1DC"/>
      <stop offset="100%" stop-color="#FFF5F7" stop-opacity="0"/>
    </radialGradient>
    <radialGradient id="core" cx="50%" cy="50%" r="50%">
      <stop offset="0%" stop-color="#FFFFFF" stop-opacity="0.6"/>
      <stop offset="100%" stop-color="#F76B94" stop-opacity="0"/>
    </radialGradient>
  </defs>
  <rect width="400" height="500" fill="url(#bg)"/>
  <ellipse cx="200" cy="215" rx="195" ry="185" fill="url(#glow)"/>
  <g transform="translate(200,205)">
    <ellipse rx="24" ry="68" transform="rotate(0) translate(0,-22)"   fill="#FFB3C6" fill-opacity="0.75"/>
    <ellipse rx="24" ry="68" transform="rotate(40) translate(0,-22)"  fill="#FF8FAE" fill-opacity="0.70"/>
    <ellipse rx="24" ry="68" transform="rotate(80) translate(0,-22)"  fill="#FFB3C6" fill-opacity="0.68"/>
    <ellipse rx="24" ry="68" transform="rotate(120) translate(0,-22)" fill="#FF8FAE" fill-opacity="0.72"/>
    <ellipse rx="24" ry="68" transform="rotate(160) translate(0,-22)" fill="#FFB3C6" fill-opacity="0.75"/>
    <ellipse rx="24" ry="68" transform="rotate(200) translate(0,-22)" fill="#FF8FAE" fill-opacity="0.70"/>
    <ellipse rx="24" ry="68" transform="rotate(240) translate(0,-22)" fill="#FFB3C6" fill-opacity="0.68"/>
    <ellipse rx="24" ry="68" transform="rotate(280) translate(0,-22)" fill="#FF8FAE" fill-opacity="0.72"/>
    <ellipse rx="24" ry="68" transform="rotate(320) translate(0,-22)" fill="#FFB3C6" fill-opacity="0.75"/>
    <ellipse rx="15" ry="44" transform="rotate(20) translate(0,-15)"  fill="#FFD1DC" fill-opacity="0.88"/>
    <ellipse rx="15" ry="44" transform="rotate(60) translate(0,-15)"  fill="#FFC4D3" fill-opacity="0.82"/>
    <ellipse rx="15" ry="44" transform="rotate(100) translate(0,-15)" fill="#FFD1DC" fill-opacity="0.88"/>
    <ellipse rx="15" ry="44" transform="rotate(140) translate(0,-15)" fill="#FFC4D3" fill-opacity="0.82"/>
    <ellipse rx="15" ry="44" transform="rotate(180) translate(0,-15)" fill="#FFD1DC" fill-opacity="0.88"/>
    <ellipse rx="15" ry="44" transform="rotate(220) translate(0,-15)" fill="#FFC4D3" fill-opacity="0.82"/>
    <ellipse rx="15" ry="44" transform="rotate(260) translate(0,-15)" fill="#FFD1DC" fill-opacity="0.88"/>
    <ellipse rx="15" ry="44" transform="rotate(300) translate(0,-15)" fill="#FFC4D3" fill-opacity="0.82"/>
    <ellipse rx="15" ry="44" transform="rotate(340) translate(0,-15)" fill="#FFD1DC" fill-opacity="0.88"/>
    <ellipse rx="32" ry="32" fill="url(#core)"/>
    <circle r="26" fill="#F76B94"/>
    <circle r="17" fill="#E34D7C"/>
    <circle r="9"  fill="#BD3A64" fill-opacity="0.85"/>
    <circle r="4"  fill="#963154" fill-opacity="0.6"/>
  </g>
  <rect x="197" y="270" width="6" height="74" rx="3" fill="#A0C898" fill-opacity="0.45"/>
  <ellipse cx="175" cy="302" rx="11" ry="34" transform="rotate(-38,175,302)" fill="#A0C898" fill-opacity="0.45"/>
  <ellipse cx="225" cy="302" rx="11" ry="34" transform="rotate(38,225,302)"  fill="#A0C898" fill-opacity="0.45"/>
  <ellipse cx="158" cy="330" rx="8"  ry="24" transform="rotate(-55,158,330)" fill="#8BBF83" fill-opacity="0.35"/>
  <ellipse cx="242" cy="330" rx="8"  ry="24" transform="rotate(55,242,330)"  fill="#8BBF83" fill-opacity="0.35"/>
  <path d="M112 360 Q200 342 288 360 L272 480 L128 480 Z" fill="#FFD1DC" fill-opacity="0.28"/>
  <path d="M126 360 Q200 348 274 360 L260 472 L140 472 Z" fill="#FFB3C6" fill-opacity="0.18"/>
  <g transform="translate(65,220) scale(0.65)">
    <ellipse rx="20" ry="44" transform="rotate(0) translate(0,-14)"   fill="#FFB3C6" fill-opacity="0.38"/>
    <ellipse rx="20" ry="44" transform="rotate(90) translate(0,-14)"  fill="#FF8FAE" fill-opacity="0.33"/>
    <ellipse rx="20" ry="44" transform="rotate(180) translate(0,-14)" fill="#FFB3C6" fill-opacity="0.38"/>
    <ellipse rx="20" ry="44" transform="rotate(270) translate(0,-14)" fill="#FF8FAE" fill-opacity="0.33"/>
    <circle r="14" fill="#F76B94" fill-opacity="0.38"/>
  </g>
  <g transform="translate(338,188) scale(0.5)">
    <ellipse rx="20" ry="44" transform="rotate(0) translate(0,-14)"   fill="#FFB3C6" fill-opacity="0.32"/>
    <ellipse rx="20" ry="44" transform="rotate(120) translate(0,-14)" fill="#FF8FAE" fill-opacity="0.28"/>
    <ellipse rx="20" ry="44" transform="rotate(240) translate(0,-14)" fill="#FFB3C6" fill-opacity="0.32"/>
    <circle r="11" fill="#F76B94" fill-opacity="0.30"/>
  </g>
  <text x="200" y="494" text-anchor="middle" font-family="Georgia,serif" font-size="9" fill="#E34D7C" fill-opacity="0.18" letter-spacing="4">BLUSH PETALS</text>
</svg>
